<svg xmlns="http://www.w3.org/2000/svg" viewBox="0 0 971.816 124.752" fill="antiquewhite"><path d="M94.5,57.5c-1.9,1.1-2.8,2.9-2.8,5.6v34.8c0,0.1-0.1,0.2-0.3,0.4c-2.2,1.7-4.6,3-7.2,4s-5.3,1.8-8.1,2.3
		c-2.8,0.5-5.6,0.8-8.4,1c-2.8,0.1-5.5,0.2-8.2,0.2c-4,0-8.1-0.1-12.3-0.4c-7.3-0.6-13.8-2.4-19.6-5.5s-10.8-7.2-14.9-12.2
		S5.5,77,3.3,70.6S0,57.5,0,50.4C0,42.2,1.5,35,4.4,28.7s7-11.6,12-15.8c5.1-4.3,11-7.5,17.8-9.6C41.1,1.1,48.3,0,56,0
		c4.1,0,8.3,0.2,12.5,0.7c4.1,0.5,8.2,1,12.3,1.5c1.8,0.3,3.6,0.6,5.4,0.8c1.8,0.3,3.6,0.5,5.4,0.7c0.4,0,0.6,0.2,0.6,0.6
		c-0.2,3.2-0.5,6.5-1,9.7s-0.9,6.4-1.4,9.6c-0.1,0.6-0.2,1.3-0.3,1.9c-0.1,0.6-0.2,1.2-0.3,1.7c0,0.3-0.2,0.4-0.5,0.5
		c-0.3,0-0.5-0.1-0.6-0.3c-0.7-3.9-2.1-7.3-4-10.2c-1.9-2.8-4.3-5.2-7.1-7.1c-2.8-1.9-5.9-3.3-9.4-4.1c-3.4-1-7-1.5-10.7-1.5
		c-6.3,0-12.2,1.1-17.7,3.2S29,12.8,24.9,16.6c-4,3.8-7.2,8.4-9.6,13.8c-2.3,5.4-3.5,11.3-3.5,17.7c0,7,1.3,13.6,3.9,19.8
		s6.1,11.6,10.5,16.2c4.5,4.6,9.7,8.3,15.8,11s12.7,4.1,19.8,4.1c3,0,6.1-0.3,9.2-1s5.8-2.2,8-4.5v-31c0-2.2-0.7-3.7-2.1-4.5
		s-2.9-1.4-4.7-2c-0.7-0.2-1.5-0.4-2.2-0.7s-1.5-0.6-2.2-1.1c-0.3-0.2-0.4-0.4-0.3-0.6c0.1-0.2,0.3-0.3,0.5-0.3
		c5.5,0,10.9,0,16.3,0.1c5.4,0.1,10.8,0.3,16.3,0.6l0.1,1.1C98.5,55.7,96.4,56.4,94.5,57.5z M167,94c-1.2-0.1-2.4-0.2-3.6-0.3
		c-0.8-0.1-1.5-0.2-2.3-0.2s-1.6-0.1-2.4-0.1c-2.1,0-4.2,0.1-6.3,0.3c-2.1,0.2-4.2,0.4-6.3,0.5c-0.3,0-0.5-0.1-0.6-0.4
		s0-0.5,0.3-0.7l5.4-2.6c-1.5-4.3-3.2-8.5-4.9-12.7c-1.7-4.3-3.4-8.5-4.9-12.9H120c-0.7,1.8-1.3,3.5-2,5.3c-0.9,2.4-1.7,4.8-2.5,7.3
		c-0.8,2.4-1.5,4.8-2.2,7.2c-0.6,2.2-1,3.9-1,4.9c0,1.4,0.6,2.3,1.8,2.7c1.2,0.4,2.3,0.7,3.4,0.9v1.1c-1.7-0.2-3.5-0.3-5.4-0.5
		c-3.7-0.3-7.3-0.3-11,0c-1.8,0.1-3.7,0.3-5.5,0.5c-0.3,0.1-0.4,0-0.5-0.4c0-0.4,0.1-0.6,0.3-0.7c5-0.6,8.6-3.3,10.6-8v0.1
		c2.7-6.7,5.2-13.4,7.7-20.1s4.9-13.5,7.3-20.2c1.7-4.6,3.3-9.2,4.8-13.7c1.6-4.6,3.2-9.2,5-13.7c0.1-0.3,0.3-0.4,0.5-0.4
		c0.3,0,0.5,0.1,0.6,0.4c0.5,1.3,0.9,2.5,1.4,3.8s1,2.5,1.4,3.8c3.8,10.4,7.7,20.7,11.8,31c4.1,10.4,8.8,20.5,14,30.4
		c1.1,2.1,2.5,3.6,4.2,4.5s3.6,1.5,5.9,1.7v1.1C169.4,94.1,168.2,94.1,167,94L167,94z M130.7,31.8c-1.5,4.7-3,9.5-4.5,14.3
		s-3.1,9.6-4.7,14.4h17.8L130.7,31.8z M270,94.2h-11.2c-3.7,0-7.3-0.1-10.9-0.3c-0.6,0-0.7-0.2-0.6-0.7c0.1-0.2,0.2-0.4,0.2-0.5
		c0-0.2,0.1-0.4,0.2-0.5l0.8-2.5c0.3-0.8,0.4-1.6,0.4-2.3c0-5.2-0.3-10.4-0.8-15.5s-1.1-10.2-1.7-15.4c-0.3-2.8-0.7-5.6-1-8.3
		c-0.3-2.4-0.6-5.3-0.8-8.5c-3.5,6.6-6.8,13.3-10.1,20.1c-3.2,6.7-6.4,13.5-9.6,20.4c-1.1,2.3-2.2,4.5-3.2,6.8
		c-1.1,2.3-2.1,4.5-3.2,6.8c-0.1,0.2-0.2,0.3-0.4,0.3s-0.4-0.1-0.6-0.3c-4.2-5.9-7.9-11.9-10.9-18c-3.1-6.1-6-12.2-8.7-18.4
		c-1.3-2.9-2.6-5.8-3.9-8.7c-1.3-2.9-2.6-5.8-4.1-8.6c-0.3,2.2-0.5,4.5-0.8,6.7s-0.5,4.3-0.8,6.4c-0.7,5.6-1.4,11.3-1.9,16.9
		c-0.6,5.7-0.8,11.4-0.8,17.1c0,1.7,0.4,2.8,1.2,3.4s1.8,1.1,3,1.6c0.4,0.2,0.9,0.4,1.5,0.6s1.1,0.4,1.2,0.5
		c0.3,0.2,0.4,0.4,0.3,0.7c-0.1,0.3-0.3,0.4-0.6,0.4c-1.3,0-2.5,0-3.8-0.1c-1.3,0-2.5-0.1-3.8-0.2s-2.6-0.2-3.9-0.2
		c-1.3,0-2.6-0.1-3.9-0.1H174c-0.8,0-1.7,0.1-2.8,0.3c-0.3,0.1-0.5,0-0.6-0.4s0-0.6,0.3-0.7c0.7-0.2,1.3-0.3,1.7-0.3
		c0.9-0.2,1.8-0.4,2.6-0.6c0.7-0.2,1.4-0.8,2.1-1.9c0.2-0.3,0.4-1.5,0.8-3.6c0.3-2.1,0.7-4.8,1.1-8.1c0.4-3.3,0.9-7,1.4-11.1
		c0.5-4.2,1-8.4,1.4-12.7c0.5-4.3,0.9-8.6,1.4-12.7c0.5-4.2,0.9-8,1.2-11.5c0.4-3,0.6-5.7,0.8-8.1c0.2-2.3,0.4-4,0.6-5
		c0-0.3,0.1-0.4,0.3-0.5c0.2,0,0.4,0,0.6,0.2c1.1,1.2,2.7,3.6,4.7,7.1s4.2,7.6,6.5,12.3c2.5,4.9,4.9,9.9,7.3,14.9
		c2.3,4.9,4.7,9.7,7,14.6c1.6,3.2,2.8,6,3.9,8.3c1,2.3,1.9,4.2,2.8,5.8c1.6-3.2,3.1-6.3,4.5-9.6c1.5-3.4,3-6.9,4.5-10.3
		c3.3-7.6,6.7-15.1,10.2-22.6c3.6-7.6,7.4-14.4,11.4-20.4c0.2-0.2,0.4-0.3,0.6-0.2c0.2,0,0.3,0.2,0.3,0.5c0.2,1.1,0.3,2.6,0.5,4.6
		c0.1,2,0.3,4.2,0.6,6.8c0.3,3.4,0.6,7.1,1,11.2c0.4,4,0.8,8.2,1.3,12.4s0.9,8.3,1.4,12.3c0.4,3.7,0.9,7.3,1.4,10.9
		c0.5,3.3,1,6.1,1.4,8.3c0.5,2.3,0.9,3.6,1.4,4.2c1,1.5,2,2.4,2.9,2.8s2,0.7,3.3,0.9c0.6,0.2,1.3,0.3,2,0.3s1.4,0.3,2.1,0.6
		L270,94.2L270,94.2z M314.2,87.2c-0.3,2-0.6,4.1-0.8,6.1c0,0.3-0.2,0.4-0.6,0.4l-0.1,0.1c-0.7,0.3-1.3,0.4-1.8,0.4
		c-2.1,0-4.2,0-6.4-0.1c-2.1,0-4.3-0.1-6.4-0.1c-1.8,0-3.6,0-5.4-0.1c-1.8,0-3.6-0.1-5.4-0.1c-2.5,0-5,0-7.5,0.1
		c-2.5,0-5,0.1-7.5,0.2V93c1.4,0,2.5-0.3,3.4-0.9s1.5-1.4,2-2.3s0.8-1.9,0.9-3.1c0.1-1.1,0.2-2.3,0.2-3.5v-57c0-1.8-0.4-3-1.3-3.6
		s-1.8-1-2.8-1.4l-1.9-0.6c-0.7-0.2-1.4-0.6-2.1-1c-0.2-0.2-0.3-0.4-0.2-0.6c0-0.2,0.2-0.3,0.5-0.3h39.2c0.4-0.2,0.8-0.3,1.2-0.5
		c0.4-0.1,0.8-0.3,1.2-0.5c0.5-0.2,0.7,0,0.7,0.6c-0.3,2.2-0.6,4.5-1,6.7c-0.4,2.1-0.8,4.2-1.3,6.3c-0.1,0.3-0.3,0.4-0.6,0.3
		c-0.3,0-0.5-0.2-0.5-0.5c-0.2-3.2-1.3-5.3-3.3-6.3s-4.5-1.5-7.4-1.5h-10.9v28.2h16c0.5,0,1.1-0.1,1.8-0.4c0.7-0.3,1.5-0.5,2.2-0.8
		c1-0.5,2-0.9,3-1.2c0.5-0.2,0.7,0,0.7,0.5c-0.1,1.1-0.2,2.3-0.3,3.6c-0.1,1.2-0.3,2.4-0.5,3.6c-0.2,1.1-0.3,2.3-0.4,3.4
		c-0.1,1.2-0.2,2.3-0.4,3.4c0,0.3-0.1,0.5-0.3,0.6c-0.2,0.1-0.4,0-0.6-0.1c-0.5-0.5-0.8-0.9-0.9-1.4c-0.2-0.5-0.3-1-0.5-1.5
		s-0.4-1.1-0.6-1.7c-0.2-0.6-0.5-1.1-1-1.5c-0.5-0.5-1.3-0.8-2.5-1c-1.3-0.2-2.7-0.4-4-0.5c-1.4-0.1-2.8-0.2-4.2-0.2h-7.3v28.4
		c1.4,2,3.3,3.6,5.9,4.6c2.5,1.1,5,1.6,7.4,1.6c3.2,0,5.9-0.8,8.2-2.5c2.2-1.7,3.7-4.1,4.5-7.2l1.1,0.3
		C314.8,83.1,314.4,85.2,314.2,87.2L314.2,87.2z"/>
	<path d="M555.7,94.6c-4.8-0.3-9.6-0.4-14.5-0.4c-1.7,0-3.5,0-5.2,0.1c-1.7,0-3.5,0.1-5.3,0.2c-0.3,0-0.4-0.2-0.5-0.5
		c0-0.3,0.1-0.5,0.3-0.6c2.8-0.8,4.7-1.9,5.5-3.3s1.2-3.5,1.2-6.5V27c0-2.2-0.6-3.6-1.7-4.2c-1.1-0.6-2.5-1.1-4.2-1.6
		c-0.3-0.1-0.7-0.2-1-0.3c-0.3-0.1-0.7-0.2-1-0.3c-0.3-0.1-0.4-0.3-0.3-0.6c0-0.3,0.2-0.5,0.5-0.5c6.1,0.4,12.3,0.5,18.4,0.3
		c1.9,0,3.7-0.1,5.6-0.2c0.3,0,0.4,0.2,0.5,0.5c0,0.3-0.1,0.5-0.3,0.6c-2,0.4-3.6,0.9-4.8,1.6s-1.8,2.2-1.8,4.5v56.4
		c0,3.1,0.7,5.5,2.1,7c1.4,1.6,3.6,2.6,6.7,3.2L555.7,94.6L555.7,94.6z M673.6,95.6c-1.6,0.4-3.3,0.6-5,0.6c-2.8,0-5.2-0.5-7.4-1.5
		s-4.2-2.3-5.9-3.9s-3.4-3.3-4.9-5.4c-1.5-2-3-4.1-4.3-6.2c-1.3-1.9-2.7-3.8-4.1-5.7c-1.4-1.9-3-3.6-4.7-5.1s-3.5-2.7-5.5-3.6
		s-4.2-1.4-6.7-1.4h-2.2c-0.6,0-1.3,0.1-2.1,0.3v19.6c0,2.7,0.8,4.9,2.4,6.8c1.6,1.9,3.7,3,6.4,3.2v1.1c-2.1-0.2-4.2-0.3-6.3-0.5
		c-2.1-0.1-4.2-0.2-6.3-0.2s-4.2,0.1-6.1,0.3c-2,0.2-4,0.4-6.1,0.7c-0.3,0.1-0.5,0-0.6-0.3s-0.1-0.6,0.2-0.8
		c1.9-0.9,3.5-2.3,4.8-4.1c1.3-1.8,1.9-3.8,1.9-5.9v-55c0-2.1-0.8-4-2.3-5.6s-3.3-2.7-5.4-3.2c-0.3-0.1-0.4-0.3-0.3-0.6
		c0-0.3,0.2-0.5,0.5-0.5h27.1c2.8,0,5.6,0.3,8.4,1c2.8,0.7,5.2,1.8,7.3,3.2c2.1,1.5,3.8,3.4,5.1,5.8s1.9,5.2,1.9,8.5
		c0,4.4-1.2,8.6-3.6,12.5c-2.4,3.9-5.2,7.3-8.2,10.2c1,1.1,2.1,2.5,3.3,4.2c1.3,1.8,2.5,3.6,3.9,5.3c2.1,2.9,4.2,5.7,6.4,8.5
		c2.2,2.9,4.6,5.5,7.1,7.8s5,4.2,7.7,5.5s5.4,1.8,8.1,1.4l0.4,1.1C676.9,94.6,675.2,95.2,673.6,95.6z M642.6,35.2
		c-0.7-2.4-1.7-4.5-3.1-6.5c-1.4-1.9-3.1-3.5-5.1-4.7s-4.4-1.9-7-1.9c-1.1,0-2.2,0.1-3.3,0.2s-2.2,0.4-3.2,0.9v34.3
		c1.6,0.3,3.1,0.5,4.5,0.5c1.5,0.1,3,0.1,4.5,0.1c5.1,0,8.7-1.4,10.7-4.2s3-6.7,3-11.6C643.6,40,643.3,37.6,642.6,35.2z M743.5,73.7
		c-2.2,4.5-5,8.5-8.6,11.8s-7.7,5.9-12.5,7.7c-4.7,1.8-9.7,2.8-14.9,2.8c-4.3,0-8.8-1.1-13.4-3.2c-4.6-2.1-8.9-4.9-12.7-8.3
		c-3.9-3.4-7-7.2-9.6-11.6c-2.5-4.3-3.8-8.7-3.8-13.1c0-6.7,0.6-12.5,1.9-17.3c1.2-4.8,3.2-8.9,6-12.3c2.8-3.3,6.4-6.1,10.9-8.3
		s10-3.9,16.5-5.3l1.8-0.1c5.9-0.5,11.3,0.4,16.4,2.5c5,2.2,9.5,5.2,13.2,9.1c3.8,3.9,6.7,8.5,8.9,13.8s3.2,10.9,3.2,16.8
		C746.7,64.3,745.6,69.2,743.5,73.7L743.5,73.7z M706.1,21.2c-1.1,0-2.3,0.1-3.4,0.2v69.5c1.1,0.2,2.3,0.4,3.4,0.5V21.2z
		 M714.3,91.1c2.5-0.4,4.7-1.2,6.8-2.2c3.6-1.8,6.6-4.2,9-7.2s4.3-6.4,5.5-10.4c1.2-3.9,1.9-8.1,1.9-12.5c0-4.5-0.7-9-2-13.5
		s-3.3-8.5-5.9-12.1c-2.6-3.6-5.8-6.5-9.6-8.7c-1.8-1-3.7-1.8-5.6-2.3L714.3,91.1L714.3,91.1z M711.9,21.6c-1.1-0.2-2.3-0.3-3.4-0.4
		v70.3h0.2c1.1,0,2.2,0,3.2-0.1V21.6z M700.3,21.8c-2.1,0.4-4.1,1.1-6,1.9c-3.6,1.7-6.7,4-9.2,7s-4.4,6.4-5.7,10.3s-2,8.1-2,12.5
		c0,4.6,0.7,9.1,2.1,13.6c1.4,4.5,3.4,8.6,6.1,12.2c2.7,3.6,6,6.6,9.8,8.8c1.5,0.9,3.1,1.6,4.8,2.1L700.3,21.8L700.3,21.8z
		 M828.4,20.3c0,0-0.2,0-0.3,0.1c-1.4,0.4-2.7,0.9-4.1,1.4c-1.4,0.6-2.1,1.5-2.1,2.9l0.1,33.2v5.6c0,5.3-0.1,10.5-0.3,15.8
		c-0.2,5.2-0.5,10.4-1,15.6c0,0.2-0.1,0.3-0.3,0.5c-0.2,0.1-0.4,0.1-0.6-0.1c-4.4-3.8-8.8-7.8-13.2-12.2c-4.4-4.4-8.8-8.8-13-13.4
		c-4.3-4.5-8.5-9.1-12.6-13.8c-4-4.5-7.9-9-11.8-13.6c-1.2-1.3-2.3-2.6-3.4-3.9c-1.1-1.3-2.3-2.7-3.4-3.9c-0.3,2.4-0.4,4.8-0.4,7.2
		c0,3.5,0,7,0.1,10.5s0.2,7,0.4,10.5c0.4,7,0.6,14,0.6,21.1c0,1.6,0.1,2.8,0.4,3.8c0.3,1,0.6,1.7,1,2.3c0.4,0.5,0.9,0.9,1.5,1.2
		c0.6,0.2,1.2,0.4,1.9,0.5c0.7,0.2,1.5,0.4,2.2,0.6s1.6,0.7,2.6,1.4c0.2,0.2,0.3,0.4,0.2,0.6c0,0.2-0.2,0.3-0.5,0.3
		c-0.9-0.1-1.8-0.2-2.7-0.3c-0.9-0.1-1.8-0.2-2.7-0.3c-1.3-0.2-2.6-0.3-3.9-0.4c-1.3-0.1-2.6-0.1-3.9-0.1c-1.7,0-3.4,0.1-5.1,0.3
		c-1.7,0.2-3.5,0.5-5.2,0.8c-0.3,0.1-0.5,0-0.6-0.3s-0.1-0.5,0.1-0.7c0.7-0.6,1.4-1.1,2-1.5c0.6-0.3,1.1-0.7,1.7-1
		c1.1-0.5,2.1-1.3,3-2.3s1.3-2.5,1.3-4.6V19.7l1.1-2.2c0.1-0.2,0.2-0.3,0.4-0.4s0.3,0,0.4,0.1c9.8,10.1,19.5,20.3,29.1,30.6
		s19.1,20.7,28.5,31.2v-0.4c0-4.2,0-8.4-0.1-12.5c0-4.1-0.1-8.4-0.2-12.7c-0.1-3.9-0.2-8.1-0.3-12.6s-0.1-8.7-0.1-12.6
		c0-1.6-0.2-2.8-0.5-3.8s-0.8-1.7-1.3-2.2s-1.1-0.8-1.8-1c-0.6-0.2-1.3-0.3-1.9-0.4c-0.7-0.1-1.3-0.2-2-0.3
		c-0.6-0.1-1.2-0.5-1.6-0.9c-0.2-0.2-0.2-0.4-0.1-0.7c0.1-0.3,0.3-0.4,0.5-0.3c2.1,0.3,4.1,0.4,5.9,0.4h5.8c1.2,0,2.4,0,3.6-0.1
		c1.3,0,2.5,0,3.8,0.1c0.5,0,1,0,1.5,0.1c0.5,0,1,0.1,1.5,0.1l0.3,1.1C828.6,20.3,828.4,20.4,828.4,20.3L828.4,20.3z M880.5,87.2
		c-0.3,2-0.6,4.1-0.8,6.1c0,0.3-0.2,0.4-0.6,0.4l-0.1,0.1c-0.7,0.3-1.3,0.4-1.8,0.4c-2.1,0-4.2,0-6.4-0.1c-2.1,0-4.3-0.1-6.4-0.1
		c-1.8,0-3.6,0-5.4-0.1c-1.8,0-3.6-0.1-5.4-0.1c-2.5,0-5,0-7.5,0.1c-2.5,0-5,0.1-7.5,0.2V93c1.4,0,2.5-0.3,3.4-0.9s1.5-1.4,2-2.3
		s0.8-1.9,0.9-3.1c0.1-1.1,0.2-2.3,0.2-3.5v-57c0-1.8-0.4-3-1.3-3.6c-0.9-0.6-1.8-1-2.8-1.4l-1.9-0.6c-0.7-0.2-1.4-0.6-2.1-1
		c-0.2-0.2-0.3-0.4-0.2-0.6c0-0.2,0.2-0.3,0.5-0.3h39.2c0.4-0.2,0.8-0.3,1.2-0.5c0.4-0.1,0.8-0.3,1.2-0.5c0.5-0.2,0.7,0,0.7,0.6
		c-0.3,2.2-0.6,4.5-1,6.7c-0.4,2.1-0.8,4.2-1.3,6.3c-0.1,0.3-0.3,0.4-0.6,0.3c-0.3,0-0.5-0.2-0.5-0.5c-0.2-3.2-1.3-5.3-3.3-6.3
		s-4.5-1.5-7.4-1.5h-10.9v28.2h16c0.5,0,1.1-0.1,1.8-0.4l2.2-0.8c1-0.5,2-0.9,3-1.2c0.5-0.2,0.7,0,0.7,0.5c-0.1,1.1-0.2,2.3-0.3,3.6
		c-0.1,1.2-0.3,2.4-0.5,3.6c-0.2,1.1-0.3,2.3-0.4,3.4c-0.1,1.2-0.2,2.3-0.4,3.4c0,0.3-0.1,0.5-0.3,0.6s-0.4,0-0.6-0.1
		c-0.5-0.5-0.8-0.9-0.9-1.4c-0.2-0.5-0.3-1-0.5-1.5s-0.4-1.1-0.6-1.7c-0.2-0.6-0.5-1.1-1-1.5c-0.5-0.5-1.3-0.8-2.5-1
		c-1.3-0.2-2.7-0.4-4-0.5c-1.4-0.1-2.8-0.2-4.2-0.2h-7.3v28.4c1.4,2,3.3,3.6,5.9,4.6c2.5,1.1,5,1.6,7.4,1.6c3.2,0,5.9-0.8,8.2-2.5
		c2.2-1.7,3.7-4.1,4.5-7.2l1.1,0.3C881.2,83.1,880.8,85.2,880.5,87.2L880.5,87.2z M931.3,83.2c-1.7,2.7-3.9,4.9-6.5,6.8
		s-5.5,3.4-8.7,4.4c-3.2,1.1-6.2,1.6-9,1.6c-1.4,0-2.8-0.2-4.3-0.5s-2.9-0.8-4.1-1.6c-1.2-0.7-2.3-1.7-3-2.8
		c-0.8-1.1-1.2-2.6-1.2-4.3c0-1.1,0.1-2.2,0.3-3.3c0.2-1.1,0.4-2.2,0.6-3.2l0.7-3.3c0-0.3,0.2-0.4,0.6-0.4c0.4,0,0.6,0.1,0.6,0.4v2
		c0,1.9,0.4,3.6,1.2,5.1c0.8,1.4,1.9,2.7,3.2,3.8c1.3,1.1,2.8,1.8,4.5,2.3s3.4,0.8,5.2,0.8c1.7,0,3.3-0.3,5.1-0.8
		c1.7-0.5,3.3-1.3,4.8-2.4c1.4-1,2.6-2.4,3.5-3.9s1.4-3.2,1.4-5c0-1.7-0.4-3.5-1.2-5.2s-1.9-3.4-3.3-5.2c-1.5-1.8-3-3.6-4.7-5.2
		c-1.8-1.8-3.6-3.5-5.4-5.2c-1.9-1.8-3.9-3.7-5.8-5.6c-1.9-1.9-3.6-3.8-5.1-5.8s-2.7-4-3.6-6c-0.9-2-1.4-4.1-1.4-6.2
		c0-3.1,0.9-5.8,2.6-8.1c1.7-2.2,3.9-4.1,6.5-5.5s5.4-2.5,8.4-3.2s5.8-1,8.4-1c3.7,0,7,0.5,10.1,1.4c0.3,0.2,0.4,0.4,0.4,0.5
		c-0.4,4.7-0.9,9.3-1.7,13.9c-0.1,0.3-0.3,0.4-0.6,0.4s-0.5-0.1-0.6-0.4c-0.7-3.2-2.1-6-4.2-8.3c-2.1-2.3-4.8-3.4-8.2-3.4
		c-3.5,0-6.4,1.1-8.7,3.4s-3.5,5.1-3.5,8.6c0,1.8,0.4,3.5,1.2,5.1s1.8,3.1,3,4.5c1.2,1.5,2.7,2.9,4.3,4.3c1.7,1.5,3.4,2.9,5.1,4.3
		c1.9,1.6,3.9,3.2,5.7,4.9c1.8,1.6,3.5,3.4,5,5.4c1.4,1.8,2.6,3.8,3.6,6c0.9,2.1,1.4,4.4,1.4,6.9C933.9,77.6,933,80.5,931.3,83.2
		L931.3,83.2z M522.7,57.5c-1.9,1.1-2.8,2.9-2.8,5.6v34.8c0,0.1-0.1,0.2-0.3,0.4c-2.2,1.7-4.6,3-7.2,4c-2.6,1-5.3,1.8-8.1,2.3
		c-2.8,0.5-5.6,0.8-8.4,1c-2.8,0.1-5.5,0.2-8.2,0.2c-4,0-8.1-0.1-12.3-0.4c-7.3-0.6-13.8-2.4-19.6-5.5c-5.8-3.1-10.8-7.2-14.9-12.2
		s-7.2-10.7-9.4-17.1c-2.2-6.4-3.3-13.1-3.3-20.2c0-8.2,1.5-15.4,4.4-21.7s7-11.6,12-15.8c5.1-4.3,11-7.5,17.8-9.6
		c6.8-2.2,14-3.2,21.8-3.2c4.1,0,8.3,0.2,12.5,0.7c4.1,0.5,8.2,1,12.3,1.5c1.8,0.3,3.6,0.6,5.4,0.8c1.8,0.3,3.6,0.5,5.4,0.7
		c0.4,0,0.6,0.2,0.6,0.6c-0.2,3.2-0.5,6.5-1,9.7s-0.9,6.4-1.4,9.6c-0.1,0.6-0.2,1.3-0.3,1.9s-0.2,1.2-0.3,1.7c0,0.3-0.2,0.4-0.5,0.5
		c-0.3,0-0.5-0.1-0.6-0.3c-0.7-3.9-2.1-7.3-4-10.2c-1.9-2.8-4.3-5.2-7.1-7.1c-2.8-1.9-5.9-3.3-9.4-4.1c-3.5-0.9-7.1-1.3-10.9-1.3
		c-6.3,0-12.2,1.1-17.7,3.2s-10.2,5.1-14.3,8.9c-4,3.8-7.2,8.4-9.6,13.8c-2.3,5.4-3.5,11.3-3.5,17.7c0,7,1.3,13.6,3.9,19.8
		s6.1,11.6,10.5,16.2c4.5,4.6,9.7,8.3,15.8,11c6.1,2.7,12.7,4.1,19.8,4.1c3,0,6.1-0.3,9.2-1s5.8-2.2,8-4.5V63c0-2.2-0.7-3.7-2.1-4.5
		s-2.9-1.4-4.7-2c-0.7-0.2-1.5-0.4-2.2-0.7s-1.5-0.6-2.2-1.1c-0.3-0.2-0.4-0.4-0.3-0.6c0.1-0.2,0.3-0.3,0.5-0.3
		c5.5,0,10.9,0,16.3,0.1c5.4,0.1,10.8,0.3,16.3,0.6l0.1,1.1C526.7,55.7,524.5,56.4,522.7,57.5z M584.8,94.1c-2.1,0-8.4-0.3-10.2-0.3
		c-2.5,0-5,0-7.5,0.1c-2.5,0-5,0.1-7.5,0.2V93c1.4,0,2.5-0.3,3.4-0.9s1.5-1.4,2-2.3s0.8-1.9,0.9-3.1c0.1-1.1,0.2-2.3,0.2-3.5v-57
		c0-1.8-0.4-3-1.3-3.6c-0.9-0.6-1.8-1-2.8-1.4l-1.9-0.6c-0.7-0.2-1.4-0.6-2.1-1c-0.2-0.2-0.3-0.4-0.2-0.6c0-0.2,0.2-0.3,0.5-0.3
		h39.2c0.4-0.2,0.8-0.3,1.2-0.5c0.4-0.1,0.8-0.3,1.2-0.5c0.5-0.2,0.7,0,0.7,0.6c-0.3,2.2-0.6,4.5-1,6.7c-0.4,2.1-0.8,4.2-1.3,6.3
		c-0.1,0.3-0.3,0.4-0.6,0.3c-0.3,0-0.5-0.2-0.5-0.5c-0.2-3.2-1.3-5.3-3.3-6.3s-4.5-1.5-7.4-1.5h-10.9v28.2h16c0.5,0,1.1-0.1,1.8-0.4
		l2.2-0.8c1-0.5,2-0.9,3-1.2c0.5-0.2,0.7,0,0.7,0.5c-0.1,1.1-0.2,2.3-0.3,3.6c-0.1,1.2-0.3,2.4-0.5,3.6c-0.2,1.1-0.3,2.3-0.4,3.4
		c-0.1,1.2-0.2,2.3-0.4,3.4c0,0.3-0.1,0.5-0.3,0.6s-0.4,0-0.6-0.1c-0.5-0.5-0.8-0.9-0.9-1.4c-0.2-0.5-0.3-1-0.5-1.5
		s-0.4-1.1-0.6-1.7c-0.2-0.6-0.5-1.1-1-1.5c-0.5-0.5-1.3-0.8-2.5-1c-1.3-0.2-2.7-0.4-4-0.5c-1.4-0.1-2.8-0.2-4.2-0.2h-7.3v28.4
		c1.4,2,4,5.6,6.3,6.2C584.3,91.5,584.3,91.5,584.8,94.1z"/>
		<path d="M408.1,45.9c-0.1,0.2-0.2,0.2-0.4,0.2c-0.2,0-0.3-0.1-0.3-0.3c0-1.7-0.5-3-1.4-3.7s-2.3-1.1-3.9-1.1
			c-0.7,0-1.4,0-2.1,0.1s-1.4,0.2-2.1,0.3c-0.5,0.1-1.1,0.2-1.7,0.2c-0.6,0.1-1.2,0.1-1.7,0.1v15.5h10.7c0.4,0,0.8-0.2,1.3-0.5
			s0.8-0.6,1.1-0.9c0.1-0.1,0.2-0.1,0.4-0.1c0.1,0.1,0.2,0.2,0.2,0.3c-0.2,2.8-0.6,5.7-1.1,8.5c-0.1,0.2-0.2,0.2-0.4,0.2
			c-0.2,0-0.3-0.1-0.3-0.3c0.1-1.7-0.4-2.9-1.3-3.6c-0.9-0.7-2.2-1-3.9-1h-6.6v15.8c0,0.6,0.1,1.3,0.4,2s0.6,1.3,1.1,1.8
			s1,0.9,1.7,1.3c0.6,0.3,1.3,0.5,2.1,0.5v0.6h-0.6c-0.6,0-1.1,0-1.7-0.1c-0.5-0.1-1.1-0.1-1.7-0.2c-0.6,0-1.1-0.1-1.7-0.1
			c-0.5,0-1.1,0-1.6,0s-1.1,0-1.6,0.1l-1.6,0.2c-1.2,0.1-2.4,0.2-3.6,0.2h-0.5c-0.2,0-0.3-0.1-0.3-0.3c0-0.2,0-0.3,0.2-0.4
			c0.9-0.2,1.7-0.4,2.2-0.6s0.9-0.6,1.1-0.9c0.2-0.4,0.4-0.9,0.4-1.5s0-1.4,0-2.3v-33c0-1.2-0.2-2-0.7-2.3s-1.1-0.5-1.7-0.7
			c-0.3-0.1-0.7-0.2-1-0.4c-0.4-0.1-0.8-0.3-1.2-0.6c-0.2-0.1-0.2-0.2-0.2-0.4c0.1-0.1,0.2-0.2,0.3-0.2c3.3,0.2,6.7,0.2,10,0.2h5.6
			c0.3,0,0.5,0,0.8,0s0.6,0,0.9,0c1.2,0.1,2.5,0.1,3.8,0s2.4-0.3,3.4-0.9c0.1-0.1,0.2-0.1,0.4,0c0.1,0.1,0.2,0.2,0.1,0.4L408.1,45.9
			L408.1,45.9z"/>
		<path d="M381.4,52.3c-1.2-3-2.9-5.6-5-7.9c-2.1-2.2-4.7-4-7.5-5.2c-2.9-1.2-6-1.7-9.3-1.4l-1,0.1
			c-3.7,0.8-6.8,1.8-9.4,3s-4.6,2.8-6.2,4.7s-2.7,4.2-3.4,7c-0.7,2.7-1.1,6-1.1,9.8c0,2.5,0.7,5,2.2,7.4c1.4,2.5,3.2,4.6,5.4,6.6
			c2.2,1.9,4.6,3.5,7.2,4.7s5.2,1.8,7.6,1.8c3,0,5.8-0.5,8.5-1.6c2.7-1,5-2.5,7.1-4.4c2-1.9,3.7-4.1,4.9-6.7l0,0
			c1.2-2.6,1.8-5.4,1.8-8.4C383.3,58.5,382.7,55.3,381.4,52.3z M354.2,78.5c-2.2-1.3-4.1-3-5.6-5c-1.5-2.1-2.7-4.4-3.5-6.9
			c-0.8-2.6-1.2-5.1-1.2-7.7c0-2.5,0.4-4.9,1.1-7.1c0.8-2.2,1.8-4.2,3.2-5.9c1.4-1.7,3.1-3,5.2-4c1.1-0.5,2.2-0.9,3.4-1.1v38.9
			C355.9,79.4,355,79,354.2,78.5z M360.2,80.3c-0.7-0.1-1.3-0.2-1.9-0.3V40.5c0.6-0.1,1.3-0.1,1.9-0.1V80.3z M361.7,80.4h-0.1v-40
			c0.7,0,1.3,0.1,1.9,0.2l0,0v39.7C362.9,80.4,362.3,80.4,361.7,80.4z M377,68.9c-0.7,2.2-1.7,4.2-3.1,5.9c-1.4,1.7-3.1,3-5.1,4.1
			c-1.2,0.6-2.5,1-3.9,1.3l0,0l0,0l0,0V41c1.1,0.3,2.2,0.8,3.2,1.3c2.2,1.2,4,2.9,5.5,4.9s2.6,4.3,3.4,6.9c0.8,2.6,1.1,5.1,1.1,7.7
			C378,64.3,377.7,66.7,377,68.9z"/>
</svg>
