<?xml version="1.0" encoding="utf-8"?>
<!-- Generator: Adobe Illustrator 22.1.0, SVG Export Plug-In . SVG Version: 6.00 Build 0)  -->
<svg version="1.1" id="Layer_1" xmlns="http://www.w3.org/2000/svg" xmlns:xlink="http://www.w3.org/1999/xlink" x="0px" y="0px"
	 viewBox="0 0 971.8 124.8" style="enable-background:new 0 0 971.8 124.8;" xml:space="preserve">
<style type="text/css">
	.st0{fill:#FAEBD7;}
</style>
<path class="st0" d="M106.2,70.5c-2.1,1.2-3.2,3.3-3.2,6.3v39.1c0,0.1-0.1,0.3-0.3,0.5c-2.5,1.9-5.2,3.4-8.1,4.5c-3,1.1-6,2-9.1,2.6
	c-3.1,0.6-6.3,0.9-9.4,1.1c-3.1,0.2-6.2,0.2-9.2,0.2c-4.5,0-9.1-0.2-13.8-0.5c-8.1-0.6-15.5-2.7-22-6.2c-6.6-3.5-12.1-8.1-16.7-13.7
	c-4.6-5.6-8.1-12-10.6-19.2C1.2,78.1,0,70.5,0,62.6c0-9.2,1.6-17.3,4.9-24.4c3.3-7.1,7.8-13,13.5-17.8c5.7-4.8,12.4-8.4,20-10.8
	C46.2,7.2,54.3,5.9,63,5.9c4.6,0,9.3,0.3,14,0.8c4.6,0.5,9.2,1.1,13.8,1.7c2.1,0.3,4.1,0.6,6.1,0.9c2,0.3,4,0.6,6.1,0.8
	c0.4,0,0.6,0.2,0.6,0.6c-0.2,3.6-0.6,7.3-1.1,10.9c-0.5,3.6-1,7.2-1.5,10.8c-0.1,0.7-0.2,1.4-0.3,2.1c-0.1,0.7-0.2,1.3-0.3,1.9
	c0,0.3-0.2,0.5-0.5,0.5c-0.4,0.1-0.6-0.1-0.7-0.4c-0.8-4.4-2.3-8.2-4.5-11.4c-2.2-3.2-4.8-5.9-8-8c-3.1-2.1-6.7-3.7-10.6-4.6
	c-3.9-1-8-1.5-12.2-1.5c-7.1,0-13.7,1.2-19.9,3.6c-6.1,2.4-11.5,5.7-16,10c-4.5,4.3-8.1,9.4-10.8,15.5c-2.6,6-3.9,12.7-3.9,19.9
	c0,7.8,1.4,15.2,4.3,22.2c2.9,7,6.8,13,11.8,18.3c5,5.2,10.9,9.3,17.8,12.4c6.9,3,14.3,4.6,22.2,4.6c3.4,0,6.9-0.4,10.4-1.2
	c3.5-0.8,6.5-2.4,9-5V76.3c0-2.5-0.8-4.1-2.3-5c-1.5-0.9-3.3-1.6-5.3-2.2c-0.8-0.2-1.7-0.5-2.5-0.8c-0.8-0.3-1.7-0.7-2.5-1.2
	c-0.3-0.2-0.4-0.4-0.3-0.7c0.1-0.3,0.3-0.4,0.6-0.4c6.2,0,12.3,0.1,18.3,0.2c6,0.1,12.1,0.3,18.3,0.6l0.2,1.2
	C110.7,68.5,108.3,69.3,106.2,70.5z M187.7,111.6c-1.4-0.1-2.7-0.2-4.1-0.3c-0.8-0.1-1.7-0.2-2.6-0.2c-0.9-0.1-1.8-0.1-2.7-0.1
	c-2.4,0-4.7,0.1-7.1,0.3c-2.4,0.2-4.7,0.4-7.1,0.6c-0.3,0-0.5-0.2-0.6-0.5c-0.1-0.3,0-0.6,0.3-0.8l6-2.9c-1.7-4.8-3.6-9.6-5.5-14.3
	c-1.9-4.8-3.8-9.6-5.5-14.5h-24c-0.8,2-1.5,4-2.2,6c-1,2.7-2,5.4-2.9,8.2c-0.9,2.7-1.7,5.3-2.5,8c-0.7,2.5-1.1,4.4-1.1,5.5
	c0,1.5,0.7,2.6,2,3c1.3,0.5,2.6,0.8,3.9,1v1.2c-2-0.2-4-0.4-6-0.5c-4.1-0.3-8.3-0.3-12.4,0c-2.1,0.2-4.1,0.3-6.2,0.5
	c-0.3,0.1-0.5-0.1-0.5-0.5c-0.1-0.4,0.1-0.7,0.4-0.8c5.7-0.7,9.6-3.7,11.9-9v0.2c3-7.5,5.9-15.1,8.7-22.6c2.8-7.6,5.5-15.1,8.2-22.7
	c1.9-5.2,3.7-10.3,5.4-15.4c1.8-5.2,3.6-10.3,5.6-15.4c0.1-0.3,0.3-0.5,0.6-0.5c0.3,0,0.5,0.2,0.6,0.5c0.5,1.4,1.1,2.8,1.6,4.3
	c0.6,1.4,1.1,2.8,1.6,4.3c4.3,11.7,8.7,23.3,13.2,34.8c4.6,11.7,9.8,23.1,15.7,34.2c1.2,2.4,2.8,4.1,4.7,5.1c1.9,1,4.1,1.6,6.6,1.9
	v1.2C190.3,111.7,188.9,111.7,187.7,111.6L187.7,111.6z M146.9,41.7c-1.7,5.3-3.4,10.7-5,16c-1.7,5.4-3.5,10.8-5.3,16.2h20
	L146.9,41.7z M303.4,111.8h-12.5c-4.1,0-8.2-0.1-12.2-0.3c-0.6,0-0.8-0.3-0.6-0.8c0.1-0.2,0.2-0.4,0.2-0.6c0.1-0.2,0.1-0.4,0.2-0.6
	l0.9-2.8c0.3-0.9,0.5-1.8,0.5-2.6c0-5.9-0.3-11.7-0.9-17.4c-0.6-5.8-1.2-11.5-1.9-17.2c-0.4-3.1-0.8-6.2-1.2-9.4
	c-0.4-2.7-0.6-5.9-0.9-9.5c-3.9,7.5-7.7,15-11.3,22.6c-3.6,7.5-7.2,15.2-10.8,22.9c-1.2,2.5-2.4,5.1-3.6,7.7
	c-1.2,2.6-2.4,5.1-3.6,7.7c-0.1,0.2-0.3,0.3-0.5,0.3c-0.2,0-0.4-0.1-0.6-0.3c-4.7-6.6-8.8-13.3-12.3-20.2
	c-3.4-6.8-6.7-13.7-9.8-20.7c-1.5-3.3-3-6.5-4.4-9.8c-1.4-3.3-3-6.5-4.6-9.7c-0.3,2.5-0.6,5-0.9,7.5c-0.3,2.4-0.6,4.8-0.9,7.2
	c-0.8,6.3-1.5,12.7-2.2,19c-0.6,6.4-0.9,12.8-0.9,19.2c0,1.9,0.5,3.1,1.4,3.8c0.9,0.7,2.1,1.3,3.4,1.8c0.4,0.2,1,0.4,1.7,0.7
	c0.7,0.3,1.2,0.4,1.4,0.5c0.3,0.2,0.4,0.5,0.3,0.8c-0.1,0.3-0.3,0.5-0.6,0.5c-1.4,0-2.9,0-4.3-0.1c-1.4-0.1-2.8-0.1-4.3-0.2
	c-1.4-0.1-2.9-0.2-4.3-0.2c-1.4-0.1-2.9-0.1-4.3-0.1h-3.1c-0.9,0-2,0.1-3.1,0.3c-0.3,0.1-0.5-0.1-0.6-0.5c-0.1-0.4,0-0.7,0.3-0.8
	c0.8-0.2,1.4-0.3,1.9-0.3c1-0.2,2-0.4,2.9-0.7c0.8-0.3,1.6-1,2.3-2.1c0.2-0.3,0.5-1.6,0.9-4c0.4-2.4,0.8-5.4,1.2-9.1
	c0.5-3.7,1-7.8,1.5-12.5c0.6-4.7,1.1-9.5,1.6-14.2c0.5-4.8,1-9.6,1.5-14.3c0.5-4.7,1-9,1.4-12.9c0.4-3.4,0.7-6.4,0.9-9
	c0.2-2.6,0.4-4.5,0.6-5.6c0-0.3,0.1-0.5,0.4-0.5c0.3,0,0.5,0,0.7,0.2c1.2,1.3,3,4,5.3,8c2.3,4,4.7,8.6,7.3,13.8
	c2.8,5.6,5.5,11.1,8.2,16.7c2.6,5.5,5.2,10.9,7.8,16.4c1.8,3.6,3.2,6.7,4.3,9.3c1.1,2.6,2.2,4.7,3.1,6.5c1.8-3.5,3.4-7.1,5-10.8
	c1.7-3.9,3.4-7.7,5-11.5c3.7-8.5,7.5-17,11.4-25.4c4-8.6,8.3-16.2,12.8-22.9c0.2-0.2,0.4-0.3,0.6-0.2c0.2,0.1,0.3,0.2,0.3,0.5
	c0.2,1.2,0.4,3,0.5,5.2c0.2,2.2,0.4,4.8,0.7,7.7c0.3,3.8,0.7,8,1.2,12.5c0.5,4.5,1,9.2,1.5,13.9c0.5,4.7,1,9.4,1.5,13.8
	c0.5,4.1,1,8.2,1.6,12.3c0.6,3.7,1.1,6.8,1.6,9.4c0.5,2.5,1,4.1,1.5,4.7c1.1,1.7,2.2,2.7,3.2,3.2c1,0.5,2.3,0.8,3.7,1
	c0.7,0.2,1.5,0.3,2.2,0.4c0.8,0.1,1.6,0.3,2.4,0.7L303.4,111.8L303.4,111.8z M353,103.9c-0.3,2.3-0.6,4.6-0.9,6.9
	c0,0.3-0.2,0.5-0.6,0.5l-0.2,0.2c-0.8,0.3-1.5,0.5-2,0.5c-2.4,0-4.8,0-7.2-0.1c-2.4-0.1-4.8-0.1-7.2-0.1c-2.1,0-4.1,0-6-0.1
	c-2-0.1-4-0.1-6-0.1c-2.8,0-5.6,0-8.4,0.1c-2.8,0.1-5.6,0.1-8.4,0.2v-1.2c1.5,0,2.8-0.3,3.8-1c1-0.6,1.7-1.5,2.2-2.6
	c0.5-1,0.9-2.2,1-3.5c0.2-1.3,0.2-2.6,0.2-3.9V35.3c0-2.1-0.5-3.4-1.5-4c-1-0.6-2.1-1.1-3.2-1.5l-2.1-0.7c-0.8-0.3-1.6-0.6-2.4-1.2
	c-0.2-0.2-0.3-0.4-0.2-0.7c0-0.3,0.2-0.4,0.5-0.4h44.1c0.4-0.2,0.9-0.4,1.3-0.5c0.5-0.2,0.9-0.3,1.3-0.5c0.5-0.2,0.8,0,0.8,0.6
	c-0.3,2.5-0.7,5-1.2,7.5c-0.5,2.3-1,4.7-1.5,7c-0.1,0.3-0.3,0.4-0.7,0.4c-0.4-0.1-0.5-0.2-0.5-0.5c-0.2-3.6-1.4-6-3.7-7.1
	c-2.3-1.1-5.1-1.7-8.4-1.7h-12.2v31.7h17.9c0.5,0,1.2-0.2,2-0.5c0.8-0.3,1.6-0.6,2.5-0.9c1.1-0.6,2.2-1.1,3.4-1.4
	c0.5-0.2,0.8,0,0.8,0.6c-0.1,1.2-0.2,2.6-0.4,4c-0.1,1.3-0.3,2.7-0.5,4c-0.2,1.3-0.4,2.6-0.5,3.9c-0.1,1.3-0.3,2.6-0.5,3.9
	c0,0.3-0.1,0.5-0.4,0.6c-0.3,0.1-0.5,0.1-0.7-0.2c-0.5-0.5-0.9-1-1-1.5c-0.2-0.6-0.4-1.1-0.5-1.7c-0.2-0.6-0.4-1.2-0.6-1.9
	c-0.2-0.6-0.6-1.2-1.1-1.7c-0.5-0.5-1.5-0.9-2.9-1.2c-1.5-0.3-3-0.5-4.5-0.6c-1.6-0.2-3.1-0.2-4.7-0.2h-8.2v31.9
	c1.5,2.3,3.7,4,6.6,5.2c2.8,1.2,5.6,1.8,8.3,1.8c3.6,0,6.7-1,9.2-2.9c2.5-1.9,4.2-4.6,5-8.1l1.2,0.3
	C353.7,99.3,353.3,101.6,353,103.9L353,103.9z M447.3,57.5c-0.1,0.2-0.2,0.3-0.4,0.2c-0.2,0-0.3-0.1-0.3-0.3c0-2-0.5-3.3-1.6-4.1
	c-1.1-0.8-2.5-1.2-4.4-1.2c-0.8,0-1.6,0-2.4,0.1c-0.7,0.1-1.5,0.2-2.4,0.3c-0.6,0.1-1.2,0.2-2,0.3c-0.7,0.1-1.4,0.1-2,0.1v17.4h12
	c0.4,0,0.9-0.2,1.4-0.5c0.5-0.4,0.9-0.7,1.2-1.1c0.1-0.1,0.3-0.1,0.4-0.1c0.1,0.1,0.2,0.2,0.2,0.4c-0.2,3.2-0.6,6.4-1.2,9.5
	c-0.1,0.2-0.2,0.3-0.4,0.2c-0.2,0-0.3-0.1-0.3-0.3c0.1-2-0.4-3.3-1.5-4c-1-0.7-2.5-1.1-4.4-1.1H432V91c0,0.7,0.1,1.4,0.4,2.2
	c0.3,0.8,0.7,1.4,1.2,2s1.2,1.1,1.9,1.4c0.7,0.4,1.5,0.5,2.3,0.5v0.7h-0.6c-0.7,0-1.3,0-1.9-0.1c-0.6-0.1-1.2-0.1-1.9-0.2
	c-0.6-0.1-1.2-0.1-1.9-0.1c-0.6,0-1.2,0-1.8,0s-1.2,0-1.8,0.1l-1.8,0.2c-1.4,0.1-2.7,0.2-4.1,0.2h-0.5c-0.2,0-0.3-0.1-0.3-0.3
	c0-0.2,0-0.3,0.2-0.4c1.1-0.2,1.9-0.4,2.5-0.7s1-0.6,1.3-1.1c0.3-0.4,0.4-1,0.4-1.7c0-0.7,0-1.6,0-2.6V54.1c0-1.4-0.3-2.2-0.8-2.5
	c-0.6-0.3-1.2-0.6-1.9-0.8c-0.4-0.1-0.7-0.3-1.1-0.4c-0.5-0.2-0.9-0.4-1.4-0.7c-0.2-0.1-0.2-0.3-0.2-0.4c0.1-0.1,0.2-0.2,0.4-0.2
	c3.7,0.2,7.5,0.3,11.3,0.3h6.3c0.3,0,0.6,0,0.9,0c0.3,0,0.7,0,1,0c1.4,0.1,2.8,0.1,4.2,0c1.5-0.1,2.7-0.4,3.8-1
	c0.1-0.1,0.2-0.1,0.4,0c0.1,0.1,0.2,0.3,0.1,0.4L447.3,57.5L447.3,57.5z"/>
<path class="st0" d="M931.5,13.8c-0.1,3.6-0.6,6.9-1.5,9.8c-0.1,0.3-0.3,0.5-0.7,0.5c-0.3,0-0.5-0.2-0.7-0.5
	c-0.5-2.7-1.4-4.9-2.5-6.6c-1.1-1.6-2.6-3-4.3-4c-1.7-1-3.7-1.7-5.9-2c-2.3-0.4-4.5-0.6-6.8-0.6H496.7v95c0,4.3,1.4,8,4.1,11.1
	c2.8,3,6.2,4.9,10.3,5.5c0.3,0.1,0.5,0.4,0.4,0.7c-0.1,0.4-0.2,0.6-0.6,0.6c-3.8-0.3-7.6-0.6-11.5-0.8c-3.9-0.2-7.7-0.3-11.6-0.3
	c-2.8,0-5.6,0.1-8.4,0.2c-2.8,0.2-5.6,0.4-8.4,0.6c-0.3,0-0.5-0.2-0.6-0.6c-0.1-0.4,0.1-0.6,0.4-0.7c2.6-0.5,4.6-1.1,6.1-1.8
	c1.5-0.7,2.5-1.5,3.3-2.6c0.7-1.1,1.1-2.5,1.3-4.1c0.2-1.7,0.2-3.8,0.2-6.4V10.7h-26.8c-3.5,0-6.5,1.2-9.2,3.7
	c-2.7,2.4-4.6,5.2-5.9,8.2c-0.2,0.3-0.5,0.5-0.7,0.4c-0.3-0.1-0.4-0.2-0.4-0.6c-0.2-1.1-0.3-2.1-0.3-2.9c0-2.2,0.3-4.3,0.8-6.3
	c0.8-3.2,1.8-6.4,2.8-9.5c0.3-1,0.6-2,0.8-3c0.2-0.6,0.5-0.8,1-0.3c2.3,1.4,4.5,2.3,6.7,2.7c2.2,0.4,4.7,0.6,7.5,0.6h463.5
	c0.9,0,1.8-0.1,2.8-0.4c1-0.3,2-0.5,2.8-0.7c0.6-0.1,1.2-0.2,1.9-0.3c0.7-0.1,1.4-0.2,2.2-0.3c0.3,0,0.5,0.2,0.5,0.6v1.3
	C931.7,7.1,931.7,10.5,931.5,13.8L931.5,13.8z"/>
<path class="st0" d="M596.4,112.2c-5.4-0.3-10.8-0.5-16.2-0.5c-2,0-3.9,0-5.8,0.1c-1.9,0.1-3.9,0.1-6,0.2c-0.3,0-0.5-0.2-0.5-0.5
	c-0.1-0.4,0.1-0.6,0.4-0.7c3.2-0.9,5.3-2.2,6.2-3.7s1.4-4,1.4-7.3V67.7h-47.5v32.5c0,6.5,3.4,10.1,10.1,10.7c0.3,0,0.5,0.2,0.5,0.6
	c0,0.4-0.2,0.6-0.5,0.6h-4.8c-1.4,0-3,0.1-4.6,0.2c-1.1,0-2.5,0-3.9,0.1c-1.5,0.1-2.8,0.1-3.9,0.1h-3.9c-1.3,0-2.7-0.1-4-0.2
	c-0.4,0-0.9,0-1.5-0.1c-0.5,0-1-0.1-1.5-0.1c-0.3,0-0.5-0.2-0.5-0.5c-0.1-0.4,0.1-0.6,0.4-0.7c1.6-0.3,3-0.6,4-1
	c1-0.4,1.8-0.9,2.3-1.5c0.5-0.7,0.9-1.5,1-2.6c0.2-1,0.2-2.4,0.2-4V35.8c0-2.3-0.9-4-2.7-5.1c-1.8-1.1-3.7-1.8-5.8-1.9v-1.2
	c4.3,0.3,8.6,0.5,12.8,0.5c1.8,0,3.5,0,5.3-0.1c1.8,0,3.5-0.1,5.3-0.1h3.2c0.3,0,0.5,0.2,0.5,0.6c0,0.4-0.2,0.6-0.5,0.6
	c-1.9,0-3.5,0.6-5,1.7c-1.5,1.1-2.2,2.7-2.2,4.8v26.9h47.3V36.3c0-2.5-0.6-4-1.9-4.7c-1.3-0.7-2.9-1.3-4.7-1.8
	c-0.4-0.1-0.8-0.2-1.2-0.3c-0.4-0.1-0.8-0.2-1.2-0.3c-0.3-0.1-0.4-0.3-0.4-0.7c0-0.4,0.2-0.5,0.5-0.5c6.9,0.4,13.8,0.6,20.7,0.4
	c2.1-0.1,4.2-0.1,6.3-0.2c0.3,0,0.5,0.2,0.5,0.5c0.1,0.4-0.1,0.6-0.4,0.7c-2.3,0.4-4.1,1-5.4,1.8c-1.3,0.8-2,2.5-2,5v63.4
	c0,3.5,0.8,6.1,2.3,7.9c1.5,1.8,4.1,2.9,7.6,3.6L596.4,112.2L596.4,112.2z M679.3,113.4c-1.8,0.5-3.7,0.7-5.6,0.7
	c-3.1,0-5.9-0.6-8.4-1.7c-2.5-1.1-4.7-2.6-6.7-4.3c-2-1.8-3.8-3.8-5.5-6c-1.7-2.3-3.3-4.6-4.9-7c-1.5-2.2-3-4.3-4.6-6.4
	c-1.6-2.1-3.4-4-5.3-5.7s-4-3.1-6.2-4.1c-2.2-1-4.7-1.5-7.5-1.5h-2.5c-0.7,0-1.5,0.1-2.3,0.3v22c0,3,0.9,5.5,2.7,7.7
	c1.8,2.1,4.2,3.3,7.2,3.6v1.2c-2.3-0.2-4.7-0.4-7-0.5c-2.3-0.2-4.7-0.2-7-0.2c-2.4,0-4.7,0.1-6.9,0.3c-2.2,0.2-4.5,0.5-6.9,0.8
	c-0.3,0.1-0.5,0-0.7-0.4c-0.2-0.4-0.1-0.6,0.2-0.9c2.2-1,4-2.6,5.4-4.6c1.4-2.1,2.2-4.3,2.2-6.7V38.1c0-2.4-0.9-4.5-2.6-6.3
	c-1.7-1.8-3.7-3-6.1-3.6c-0.3-0.1-0.4-0.3-0.4-0.7c0.1-0.4,0.2-0.5,0.5-0.5h30.5c3.2,0,6.3,0.4,9.4,1.2c3.1,0.8,5.8,2,8.2,3.6
	c2.4,1.7,4.3,3.8,5.7,6.5c1.4,2.7,2.2,5.9,2.2,9.6c0,5-1.4,9.6-4.1,14.1c-2.7,4.4-5.8,8.3-9.2,11.4c1.1,1.2,2.4,2.8,3.7,4.7
	c1.4,2,2.9,4,4.3,6c2.4,3.2,4.8,6.4,7.2,9.5c2.5,3.2,5.2,6.2,8,8.8c2.8,2.6,5.7,4.7,8.7,6.2c3,1.5,6,2,9.1,1.6l0.5,1.2
	C683.1,112.3,681.2,112.9,679.3,113.4z M644.5,45.5c-0.8-2.7-1.9-5.1-3.5-7.3c-1.5-2.1-3.5-4-5.7-5.3c-2.3-1.4-4.9-2.1-7.9-2.1
	c-1.2,0-2.5,0.1-3.7,0.2c-1.2,0.2-2.4,0.5-3.6,1v38.5c1.8,0.3,3.5,0.5,5.1,0.6c1.7,0.1,3.4,0.2,5.1,0.2c5.8,0,9.8-1.6,12-4.7
	c2.2-3.1,3.3-7.5,3.3-13.1C645.7,50.9,645.3,48.2,644.5,45.5z M757.9,88.8c-2.4,5.1-5.6,9.5-9.7,13.2c-4,3.7-8.7,6.6-14,8.7
	c-5.3,2.1-10.9,3.1-16.8,3.1c-4.9,0-9.9-1.2-15.1-3.6c-5.2-2.4-10-5.5-14.3-9.3c-4.3-3.8-7.9-8.1-10.8-13c-2.8-4.8-4.3-9.7-4.3-14.7
	c0-7.5,0.7-14,2.1-19.4s3.6-10,6.7-13.8c3.1-3.8,7.2-6.9,12.2-9.3c5.1-2.4,11.2-4.4,18.6-6l2-0.2c6.6-0.5,12.7,0.4,18.4,2.9
	c5.7,2.4,10.6,5.8,14.9,10.2c4.2,4.4,7.6,9.6,10,15.5c2.4,6,3.6,12.3,3.6,18.9C761.5,78.1,760.3,83.7,757.9,88.8L757.9,88.8z
	 M715.9,29.8c-1.3,0-2.6,0.1-3.9,0.3l0,78.1c1.2,0.3,2.5,0.5,3.9,0.6L715.9,29.8z M725.1,108.3c2.8-0.5,5.3-1.3,7.6-2.5
	c4-2,7.4-4.7,10.1-8c2.7-3.3,4.8-7.2,6.2-11.7c1.4-4.4,2.1-9.1,2.1-14.1c0-5.1-0.7-10.1-2.2-15.2c-1.5-5.1-3.7-9.6-6.7-13.6
	s-6.6-7.3-10.8-9.7c-2-1.1-4.1-2-6.3-2.6L725.1,108.3L725.1,108.3z M722.4,30.2c-1.3-0.2-2.6-0.4-3.9-0.4v79h0.2
	c1.2,0,2.4-0.1,3.6-0.2C722.4,108.7,722.4,30.2,722.4,30.2z M709.4,30.4c-2.4,0.5-4.6,1.2-6.7,2.2c-4.1,1.9-7.5,4.5-10.3,7.9
	c-2.8,3.4-4.9,7.2-6.4,11.6c-1.5,4.4-2.2,9.1-2.2,14c0,5.2,0.8,10.3,2.3,15.3c1.5,5.1,3.8,9.6,6.9,13.7c3,4.1,6.7,7.4,11.1,9.9
	c1.7,1,3.5,1.8,5.4,2.4L709.4,30.4L709.4,30.4z M853.3,28.8c-0.1-0.1-0.2,0-0.4,0.1c-1.5,0.4-3.1,1-4.6,1.5
	c-1.6,0.6-2.4,1.7-2.4,3.2l0.2,37.3v6.3c0,5.9-0.1,11.8-0.3,17.7c-0.2,5.9-0.6,11.7-1.1,17.6c0,0.2-0.1,0.4-0.4,0.5
	c-0.3,0.2-0.5,0.1-0.7-0.1c-5-4.2-9.9-8.8-14.9-13.7c-5-4.9-9.8-9.9-14.6-15c-4.8-5.1-9.5-10.3-14.2-15.5c-4.5-5-8.9-10.1-13.3-15.2
	c-1.3-1.4-2.6-2.9-3.9-4.4c-1.2-1.5-2.5-3-3.9-4.4c-0.3,2.7-0.5,5.4-0.5,8c0,3.9,0.1,7.8,0.2,11.8c0.1,3.9,0.3,7.8,0.5,11.8
	c0.4,7.9,0.6,15.8,0.6,23.7c0,1.8,0.2,3.2,0.5,4.3c0.3,1.1,0.7,1.9,1.2,2.6c0.5,0.6,1,1.1,1.7,1.3c0.7,0.3,1.4,0.4,2.1,0.5
	c0.8,0.2,1.6,0.4,2.5,0.7c0.8,0.3,1.8,0.8,2.9,1.6c0.2,0.2,0.3,0.4,0.2,0.7c-0.1,0.3-0.2,0.4-0.5,0.4c-1-0.1-2-0.2-3-0.3
	c-1-0.1-2-0.2-3-0.3c-1.5-0.2-2.9-0.4-4.4-0.5c-1.5-0.1-2.9-0.2-4.4-0.2c-1.9,0-3.8,0.1-5.7,0.4c-2,0.3-3.9,0.5-5.9,0.9
	c-0.3,0.1-0.5,0-0.7-0.3c-0.2-0.3-0.1-0.6,0.1-0.8c0.8-0.7,1.6-1.3,2.2-1.7c0.6-0.4,1.3-0.8,1.9-1.1c1.2-0.6,2.3-1.5,3.3-2.6
	c1-1.1,1.5-2.8,1.5-5.2V28.1l1.2-2.5c0.1-0.2,0.3-0.4,0.5-0.5c0.2-0.1,0.4-0.1,0.5,0.2c11,11.4,21.9,22.9,32.6,34.4
	c10.8,11.6,21.5,23.3,32,35v-0.5c0-4.7,0-9.4-0.1-14.1c-0.1-4.6-0.1-9.4-0.2-14.2c-0.1-4.4-0.2-9.2-0.3-14.2
	c-0.1-5-0.2-9.7-0.2-14.2c0-1.8-0.2-3.2-0.5-4.3c-0.4-1.1-0.9-1.9-1.5-2.5c-0.6-0.6-1.3-1-2-1.2c-0.7-0.2-1.4-0.4-2.2-0.5
	c-0.8-0.1-1.5-0.2-2.2-0.4c-0.7-0.2-1.3-0.5-1.8-1c-0.2-0.2-0.2-0.5-0.1-0.8c0.2-0.3,0.3-0.4,0.5-0.3c2.4,0.3,4.6,0.5,6.7,0.5h6.5
	c1.3,0,2.7,0,4.1-0.1c1.4,0,2.8,0,4.3,0.1c0.5,0,1.1,0,1.7,0.1c0.6,0,1.1,0.1,1.7,0.1l0.3,1.2C853.5,28.8,853.4,28.8,853.3,28.8
	L853.3,28.8z M911.9,103.9c-0.3,2.3-0.6,4.6-0.9,6.9c0,0.3-0.2,0.5-0.6,0.5l-0.2,0.2c-0.8,0.3-1.5,0.5-2,0.5c-2.4,0-4.8,0-7.2-0.1
	c-2.4-0.1-4.8-0.1-7.2-0.1c-2.1,0-4.1,0-6-0.1c-2-0.1-4-0.1-6-0.1c-2.8,0-5.6,0-8.4,0.1c-2.8,0.1-5.6,0.1-8.4,0.2v-1.2
	c1.5,0,2.8-0.3,3.8-1c1-0.6,1.7-1.5,2.2-2.6c0.5-1,0.9-2.2,1-3.5c0.2-1.3,0.2-2.6,0.2-3.9V35.3c0-2.1-0.5-3.4-1.5-4
	c-1-0.6-2.1-1.1-3.2-1.5l-2.1-0.7c-0.8-0.3-1.6-0.6-2.4-1.2c-0.2-0.2-0.3-0.4-0.2-0.7c0.1-0.3,0.2-0.4,0.5-0.4h44.1
	c0.4-0.2,0.9-0.4,1.3-0.5c0.5-0.1,0.9-0.3,1.3-0.5c0.5-0.2,0.8,0,0.8,0.6c-0.3,2.5-0.7,5-1.2,7.5c-0.5,2.3-1,4.7-1.5,7
	c-0.1,0.3-0.3,0.4-0.7,0.4c-0.4-0.1-0.5-0.2-0.5-0.5c-0.2-3.6-1.4-6-3.7-7.1c-2.3-1.1-5.1-1.7-8.4-1.7h-12.2v31.7h17.9
	c0.5,0,1.2-0.2,2-0.5l2.5-0.9c1.1-0.6,2.2-1.1,3.4-1.4c0.5-0.2,0.8,0,0.8,0.6c-0.1,1.2-0.2,2.6-0.4,4c-0.1,1.3-0.3,2.7-0.5,4
	c-0.2,1.3-0.4,2.6-0.5,3.9c-0.1,1.3-0.3,2.6-0.5,3.9c0,0.3-0.1,0.5-0.4,0.6c-0.3,0.1-0.5,0.1-0.7-0.2c-0.5-0.5-0.8-1-1-1.5
	c-0.2-0.6-0.4-1.1-0.5-1.7c-0.2-0.6-0.4-1.2-0.6-1.9c-0.2-0.6-0.6-1.2-1.1-1.7c-0.5-0.5-1.5-0.9-2.9-1.2c-1.5-0.3-3-0.5-4.5-0.6
	c-1.6-0.2-3.1-0.2-4.7-0.2h-8.2v31.9c1.5,2.3,3.7,4,6.6,5.2c2.8,1.2,5.6,1.8,8.3,1.8c3.6,0,6.7-1,9.2-2.9c2.5-1.9,4.2-4.6,5-8.1
	l1.2,0.3C912.6,99.3,912.2,101.6,911.9,103.9L911.9,103.9z M969,99.4c-1.9,3-4.3,5.5-7.3,7.7c-2.9,2.1-6.2,3.8-9.7,4.9
	c-3.6,1.2-6.9,1.8-10.1,1.8c-1.5,0-3.2-0.2-4.9-0.5c-1.7-0.4-3.2-1-4.6-1.8c-1.4-0.8-2.5-1.9-3.4-3.2c-0.9-1.3-1.3-2.9-1.3-4.9
	c0-1.2,0.1-2.5,0.4-3.7c0.3-1.2,0.5-2.4,0.7-3.6l0.8-3.7c0-0.3,0.2-0.5,0.6-0.5c0.4,0,0.6,0.2,0.6,0.5v2.3c0,2.2,0.5,4.1,1.4,5.7
	c0.9,1.6,2.1,3.1,3.6,4.3c1.4,1.2,3.1,2.1,5,2.6c1.9,0.6,3.8,0.8,5.8,0.8c1.9,0,3.8-0.3,5.7-0.9c1.9-0.6,3.7-1.5,5.3-2.7
	c1.6-1.2,2.9-2.6,3.9-4.3c1-1.7,1.5-3.6,1.5-5.6c0-2-0.5-3.9-1.4-5.8c-0.9-1.9-2.2-3.8-3.7-5.8c-1.6-2.1-3.4-4-5.3-5.9
	c-2-2-4-3.9-6-5.9c-2.2-2.1-4.3-4.2-6.5-6.3c-2.2-2.1-4.1-4.3-5.7-6.5c-1.7-2.2-3-4.5-4-6.7c-1-2.3-1.5-4.6-1.5-7
	c0-3.5,1-6.5,2.9-9.1c2-2.5,4.4-4.6,7.3-6.2c2.9-1.6,6-2.8,9.4-3.6c3.4-0.8,6.5-1.2,9.4-1.2c4.1,0,7.9,0.5,11.3,1.5
	c0.3,0.2,0.5,0.4,0.5,0.6c-0.4,5.2-1.1,10.4-1.9,15.6c-0.1,0.3-0.3,0.5-0.6,0.5c-0.3,0-0.5-0.2-0.6-0.5c-0.8-3.6-2.4-6.7-4.7-9.3
	c-2.3-2.6-5.4-3.9-9.2-3.9c-3.9,0-7.2,1.3-9.8,3.8c-2.6,2.5-3.9,5.8-3.9,9.7c0,2.1,0.4,4,1.3,5.7c0.9,1.8,2,3.5,3.4,5.1
	c1.4,1.7,3,3.3,4.9,4.9c1.9,1.6,3.8,3.3,5.7,4.9c2.2,1.8,4.3,3.6,6.4,5.5c2.1,1.8,3.9,3.9,5.6,6c1.6,2.1,3,4.3,4,6.7
	c1,2.4,1.5,4.9,1.5,7.7C971.8,93.1,970.9,96.4,969,99.4L969,99.4z M417.4,84.9c-1.4,2.9-3.2,5.4-5.5,7.5c-2.3,2.1-4.9,3.8-8,4.9
	c-3,1.2-6.2,1.8-9.5,1.8c-2.8,0-5.6-0.7-8.6-2c-3-1.3-5.7-3.1-8.1-5.3c-2.5-2.2-4.5-4.6-6.1-7.4c-1.6-2.8-2.4-5.5-2.4-8.4
	c0-4.3,0.4-8,1.2-11c0.8-3.1,2.1-5.7,3.8-7.8c1.8-2.1,4.1-3.9,6.9-5.3c2.9-1.4,6.4-2.5,10.6-3.4l1.1-0.1c3.8-0.3,7.2,0.2,10.5,1.6
	c3.2,1.3,6,3.3,8.4,5.8c2.4,2.5,4.3,5.4,5.7,8.8c1.4,3.4,2.1,7,2.1,10.7C419.4,78.8,418.7,82,417.4,84.9L417.4,84.9z M393.5,51.4
	c-0.8,0-1.5,0.1-2.2,0.1v44.4c0.7,0.2,1.4,0.3,2.2,0.3L393.5,51.4z M398.7,96c1.5-0.3,3-0.7,4.3-1.4c2.3-1.1,4.2-2.7,5.8-4.6
	c1.6-1.9,2.7-4.1,3.5-6.6c0.8-2.5,1.2-5.2,1.2-8c0-2.9-0.4-5.7-1.3-8.6s-2.1-5.5-3.8-7.7c-1.6-2.3-3.7-4.1-6.2-5.5
	c-1.1-0.7-2.3-1.2-3.6-1.5L398.7,96L398.7,96z M397.2,51.6c-0.7-0.1-1.5-0.2-2.2-0.2v44.9h0.1c0.7,0,1.4,0,2-0.1L397.2,51.6
	L397.2,51.6z M389.8,51.7c-1.3,0.3-2.6,0.7-3.8,1.2c-2.3,1.1-4.3,2.6-5.8,4.5c-1.6,1.9-2.8,4.1-3.6,6.6c-0.9,2.5-1.3,5.1-1.3,8
	c0,2.9,0.4,5.8,1.3,8.7c0.9,2.9,2.2,5.5,3.9,7.8c1.7,2.3,3.8,4.2,6.3,5.6c1,0.6,2,1,3.1,1.4L389.8,51.7z"/>
</svg>
